# AST/ASF file generated using VICON BodyLanguage
# -----------------------------------------------
:version 1.10
:name VICON
:units
  mass 1.0
  length 0.45
  angle deg
:documentation
   .ast/.asf automatically generated from VICON data using
   VICON BodyBuilder and BodyLanguage model FoxedUp or BRILLIANT.MOD
:root
   order TX TY TZ RX RY RZ
   axis XYZ
   position 0 0 0  
   orientation 0 0 0 
:bonedata
  begin
     id 1 
     name lhipjoint
     direction 0.602128 -0.715006 0.355257 
     length 2.21237 
     axis 0 0 0  XYZ
  end
  begin
     id 2 
     name lfemur
     direction 0.34202 -0.939693 0  
     length 6.71649  
     axis 0 0 20  XYZ
    dof rx ry rz
    limits (-160.0 20.0)
           (-70.0 70.0)
           (-60.0 70.0)
  end
  begin
     id 3 
     name ltibia
     direction 0.34202 -0.939693 0   
     length 6.97123   
     axis 0 0 20   XYZ
    dof rx
    limits (-10.0 170.0)
  end
  begin
     id 4 
     name lfoot
     direction 0.0655697 -0.180151 0.981451   
     length 1.80924   
     axis -90 7.62852e-016 20   XYZ
    dof rx rz
    limits (-45.0 90.0)
           (-70.0 20.0)
  end
  begin
     id 5 
     name ltoes
     direction 1.53545e-011 -4.21827e-011 1   
     length 0.916331   
     axis -90 7.62852e-016 20   XYZ
    dof rx
    limits (-90.0 20.0)
  end
  begin
     id 6 
     name rhipjoint
     direction -0.625414 -0.698792 0.347201   
     length 2.2637  
     axis 0 0 0  XYZ 
  end
  begin
     id 7 
     name rfemur
     direction -0.34202 -0.939693 0   
     length 7.07595   
     axis 0 0 -20   XYZ
    dof rx ry rz
    limits (-160.0 20.0)
           (-70.0 70.0)
           (-70.0 60.0)
  end
  begin
     id 8 
     name rtibia
     direction -0.34202 -0.939693 0   
     length 7.22924   
     axis 0 0 -20   XYZ
    dof rx
    limits (-10.0 170.0)
 end
 begin
     id 9 
     name rfoot
     direction -0.0766747 -0.210662 0.974547   
     length 1.98482  
     axis -90 -7.62852e-016 -20   XYZ
    dof rx rz
    limits (-45.0 90.0)
           (-20.0 70.0)
  end
  begin
     id 10 
     name rtoes
     direction -1.53532e-011 -4.21867e-011 1   
     length 0.999842   
     axis -90 -7.62852e-016 -20   XYZ
    dof rx
    limits (-90.0 20.0)
  end
  begin
     id 11 
     name lowerback
     direction -0.0224668 0.997354 -0.0691422   
     length 2.09945   
     axis 0 0 0   XYZ
    dof rx ry rz
    limits (-20.0 45.0)
           (-30.0 30.0)
           (-30.0 30.0)
  end
  begin
     id 12 
     name upperback
     direction 0.0134698 0.998451 -0.0539888   
     length 2.09758   
     axis 0 0 0   XYZ
    dof rx ry rz
    limits (-20.0 45.0)
           (-30.0 30.0)
           (-30.0 30.0)
  end
  begin
     id 13 
     name thorax
     direction 0.0241905 0.99948 -0.0213333   
     length 2.10428   
     axis 0 0 0   XYZ
    dof rx ry rz
    limits (-20.0 45.0)
           (-30.0 30.0)
           (-30.0 30.0)
  end
  begin
     id 14 
     name lowerneck
     direction -0.00866847 0.995978 0.0891737   
     length 1.3959   
     axis 0 0 0   XYZ
    dof rx ry rz
    limits (-20.0 45.0)
           (-30.0 30.0)
           (-30.0 30.0)
  end
  begin
     id 15 
     name upperneck
     direction 0.0680679 0.992203 0.104404   
     length 1.39452   
     axis 0 0 0   XYZ
    dof rx ry rz
    limits (-20.0 45.0)
           (-30.0 30.0)
           (-30.0 30.0)
  end
  begin
     id 16
     name head
     direction 0.0242216 0.999358 0.0264054  
     length 1.40433  
     axis 0 0 0   XYZ
    dof rx ry rz
    limits (-20.0 45.0)
           (-30.0 30.0)
           (-30.0 30.0)
  end
  begin
     id 17 
     name lclavicle
     direction 0.929368 0.362991 -0.0671771  
     length 3.04887  
     axis 0 0 0   XYZ
    dof ry rz
    limits (-20.0 10.0)
           (0.0 20.0)
  end
  begin
     id 18 
     name lhumerus
     direction 1 -4.48967e-011 -7.13741e-028   
     length 4.77195   
     axis -180 -30 -90   XYZ
    dof rx ry rz
    limits (-60.0 90.0)
           (-90.0 90.0)
           (-90.0 90.0)
  end
  begin
     id 19
     name lradius
     direction 1 -4.48977e-011 3.60404e-027   
     length 2.98444   
     axis -180 -30 -90   XYZ
    dof rx
    limits (-10.0 170.0)
  end
  begin
     id 20
     name lwrist
     direction 1 -4.48997e-011 7.54877e-027   
     length 1.49222   
     axis -7.18178e-015 90 90   XYZ
    dof ry
    limits (-180.0 0.0)
 end
  begin
     id 21 
     name lhand
     direction 1 -4.489e-011 1.51105e-026   
     length 0.992285   
     axis -9.63605e-015 90 90   XYZ
    dof rx rz
    limits (-90.0 90.0)
           (-45.0 45.0)
  end
  begin
     id 22 
     name lfingers
     direction 1 -4.48998e-011 3.01948e-026   
     length 0.800006   
     axis -1.92718e-014 90 90   XYZ
    dof rx
    limits (0.0 90.0)
  end
  begin
     id 23
     name lthumb
     direction 0.707107 -6.34881e-011 0.707107   
     length 1.14865   
     axis -90 45 -3.53137e-014   XYZ
    dof rx rz
    limits (-45.0 45.0)
           (-45.0 45.0)
  end
  begin
     id 24 
     name rclavicle
     direction -0.945672 0.324529 0.0196374   
     length 3.4236  
     axis 0 0 0   XYZ 
    dof ry rz
    limits (-10.0 20.0)
           (-20.0 0.0)
  end
  begin
     id 25 
     name rhumerus
     direction -1 -4.4896e-011 1.02757e-029  
     length 4.62052   
     axis -180 30 90   XYZ
    dof rx ry rz
    limits (-90.0 60.0)
           (-90.0 90.0)
           (-90.0 90.0)
  end
  begin
     id 26 
     name rradius
     direction -1 -4.48982e-011 3.85962e-027   
     length 2.95332   
     axis -180 30 90   XYZ
    dof rx
    limits (-10.0 170.0)
  end
  begin
     id 27 
     name rwrist
     direction -1 -4.48961e-011 7.55118e-027   
     length 1.47666   
     axis -7.18178e-015 -90 -90   XYZ
    dof ry
    limits (-180.0 0.0)
  end
  begin
     id 28
     name rhand
     direction -1 -4.48984e-011 1.50994e-026   
     length 0.990956   
     axis -9.63605e-015 -90 -90   XYZ
    dof rx rz
    limits (-90.0 90.0)
           (-45.0 45.0)
  end
  begin
     id 29
     name rfingers
     direction -1 -4.4892e-011 3.02158e-026   
     length 0.798934   
     axis -1.92718e-014 -90 -90   XYZ
    dof rx
    limits (0.0 90.0)
  end
  begin
     id 30
     name rthumb
     direction -0.707107 -6.34916e-011 0.707107   
     length 1.14711   
     axis -90 -45 3.53137e-014   XYZ
    dof rx rz
    limits (-45.0 45.0)
           (-45.0 45.0)
  end
:hierarchy
  begin
    root lhipjoint rhipjoint lowerback
    lhipjoint lfemur
    lfemur ltibia
    ltibia lfoot
    lfoot ltoes
    rhipjoint rfemur
    rfemur rtibia
    rtibia rfoot
    rfoot rtoes
    lowerback upperback
    upperback thorax
    thorax lowerneck lclavicle rclavicle
    lowerneck upperneck
    upperneck head
    lclavicle lhumerus
    lhumerus lradius
    lradius lwrist
    lwrist lhand lthumb
    lhand lfingers
    rclavicle rhumerus
    rhumerus rradius
    rradius rwrist
    rwrist rhand rthumb
    rhand rfingers
  end

#!OML:ASF H:\ManfredObstacles\Project 1\Capture day 1\Session 1\Male.ASF
:FULLY-SPECIFIED
:DEGREES
216
root -1.56854 16.0328 30.7301 -168.139 -13.3343 -177.715
lowerback -6.26343 -2.07884 -0.957014
upperback 2.36439 -2.68406 -0.452321
thorax 5.99782 -1.35661 -0.240046
lowerneck -0.401516 -0.856692 -5.17014
upperneck -2.9213 -1.11661 8.89583
head -0.778593 -0.651172 3.82148
rclavicle 1.19271e-014 -2.38542e-015
rhumerus -35.6173 -18.4697 -78.9796
rradius 30.5866
rwrist 29.4704
rhand 1.05765 -7.26715
rfingers 7.12502
rthumb 26.603 -35.4184
lclavicle 1.19271e-014 -2.38542e-015
lhumerus -19.9145 3.54969 86.0014
lradius 25.8761
lwrist -20.8809
lhand -9.4914 8.19482
lfingers 7.12502
lthumb 16.4734 37.5154
rfemur -33.6627 -7.7805 26.6871
rtibia 36.2555
rfoot -18.1072 10.8209
rtoes 27.6002
lfemur -26.6034 -5.92237 -14.4954
ltibia 62.9504
lfoot -1.96979 -1.07596
ltoes -5.20673
217
root -1.54731 16.0291 30.6616 -168.158 -13.6456 -177.717
lowerback -5.97259 -1.94238 -1.01769
upperback 2.40436 -2.50237 -0.444772
thorax 5.87539 -1.27073 -0.167433
lowerneck -0.374097 -0.794656 -5.12086
upperneck -2.59101 -1.04373 8.78422
head -0.683424 -0.605781 3.76926
rclavicle -7.07673e-014 -3.18055e-014
rhumerus -35.2579 -18.6683 -78.9461
rradius 30.4064
rwrist 29.6026
rhand 1.1452 -7.64508
rfingers 7.12502
rthumb 26.6868 -35.7836
lclavicle -7.07673e-014 -3.18055e-014
lhumerus -19.9387 3.289 86.2152
lradius 25.7579
lwrist -20.7089
lhand -9.69955 8.35021
lfingers 7.12502
lthumb 16.273 37.6873
rfemur -33.4421 -7.65627 26.7419
rtibia 36.4447
rfoot -18.8575 10.4043
rtoes 27.21
lfemur -28.4445 -5.62806 -14.83
ltibia 63.3607
lfoot -4.18726 -1.03771
ltoes -4.15039
218
root -1.52317 16.0124 30.606 -168.056 -13.9127 -177.95
lowerback -5.60866 -1.77688 -1.26767
upperback 2.4341 -2.26466 -0.554686
thorax 5.70232 -1.16273 -0.103657
lowerneck -0.569273 -0.764773 -5.09709
upperneck -2.14324 -1.01666 8.77165
head -0.50727 -0.57971 3.75472
rclavicle -1.74931e-014 4.77083e-015
rhumerus -34.9539 -18.8979 -79.0332
rradius 30.4917
rwrist 29.255
rhand 1.45424 -8.18071
rfingers 7.12502
rthumb 26.9825 -36.2738
lclavicle -1.74931e-014 4.77083e-015
lhumerus -19.9528 3.02895 86.3022
lradius 25.5904
lwrist -20.8153
lhand -9.78306 8.3
lfingers 7.12502
lthumb 16.1925 37.6437
rfemur -33.4427 -7.14356 26.4861
rtibia 36.7829
rfoot -19.5967 9.506
rtoes 26.4435
lfemur -30.2594 -5.23241 -15.4437
ltibia 63.1107
lfoot -6.21966 -0.745584
ltoes -1.20833
219
root -1.5128 16.0033 30.5292 -167.936 -14.4154 -177.907
lowerback -5.66068 -1.69796 -1.12397
upperback 2.51906 -2.16996 -0.55646
thorax 5.81466 -1.11126 -0.179549
lowerneck -0.805262 -0.726019 -5.13727
upperneck -1.70739 -0.974292 8.71248
head -0.329126 -0.543871 3.73725
rclavicle -2.46493e-014 1.11319e-014
rhumerus -34.722 -19.2255 -78.9736
rradius 30.4514
rwrist 29.3174
rhand 1.40687 -8.00004
rfingers 7.12502
rthumb 26.9372 -36.1001
lclavicle -2.46493e-014 1.11319e-014
lhumerus -20.0319 3.32907 86.2729
lradius 25.38
lwrist -21.3323
lhand -9.62974 7.87177
lfingers 7.12502
lthumb 16.3402 37.2034
rfemur -33.4787 -7.37111 26.6614
rtibia 37.2223
rfoot -20.4467 9.07025
rtoes 25.4788
lfemur -31.9286 -5.06744 -15.8355
ltibia 62.2106
lfoot -8.29235 -0.138659
ltoes 8.01729
220
root -1.50248 15.9925 30.4512 -167.809 -14.9472 -178.05
lowerback -5.59245 -1.63033 -1.1702
upperback 2.54387 -2.07548 -0.61174
thorax 5.80059 -1.06608 -0.199389
lowerneck -0.889734 -0.694707 -5.11618
upperneck -1.32242 -0.943712 8.6094
head -0.193928 -0.518167 3.69447
rclavicle -3.3197e-014 1.66979e-014
rhumerus -34.707 -19.6034 -78.8699
rradius 30.4619
rwrist 29.4769
rhand 1.34899 -7.60963
rfingers 7.12502
rthumb 26.8818 -35.7183
lclavicle -3.3197e-014 1.66979e-014
lhumerus -20.2807 3.26509 86.2105
lradius 25.1826
lwrist -21.4873
lhand -9.26154 7.81778
lfingers 7.12502
lthumb 16.6947 37.1199
rfemur -33.5187 -7.62204 26.6381
rtibia 37.7595
rfoot -21.3783 8.5003
rtoes 24.6008
lfemur -33.38 -5.04334 -16.4044
ltibia 60.7261
lfoot -10.3405 0.3992
ltoes 1.97201
221
root -1.49724 15.9732 30.3695 -167.656 -15.5542 -178.108
lowerback -5.59221 -1.55259 -1.06334
upperback 2.52818 -1.97684 -0.677706
thorax 5.777 -1.01204 -0.316857
lowerneck -0.832853 -0.637634 -5.11933
upperneck -1.09718 -0.878265 8.6166
head -0.136967 -0.482481 3.69725
rclavicle -2.82274e-014 -1.11319e-014
rhumerus -34.8159 -19.6865 -78.8899
rradius 30.631
rwrist 29.2706
rhand 1.44582 -7.3335
rfingers 7.12502
rthumb 26.9745 -35.4278
lclavicle -2.82274e-014 -1.11319e-014
lhumerus -20.6319 2.83264 86.1317
lradius 24.9591
lwrist -21.4503
lhand -8.91238 8.1051
lfingers 7.12502
lthumb 17.0308 37.3785
rfemur -33.5831 -7.91981 26.7062
rtibia 38.306
rfoot -22.2758 7.99517
rtoes 24.5177
lfemur -34.6599 -5.00882 -16.8621
ltibia 58.741
lfoot -12.4088 0.43737
ltoes -1.89135
222
root -1.49798 15.95 30.2823 -167.461 -16.1764 -178.169
lowerback -5.71401 -1.46544 -0.892174
upperback 2.51215 -1.86649 -0.791664
thorax 5.81973 -0.948736 -0.522689
lowerneck -0.761505 -0.605785 -5.10146
upperneck -0.971426 -0.845605 8.691
head -0.11167 -0.466674 3.71991
rclavicle 9.93923e-016 1.59028e-014
rhumerus -34.9853 -19.7292 -79.0277
rradius 30.7276
rwrist 29.3551
rhand 1.24962 -7.00876
rfingers 7.12502
rthumb 26.7867 -35.132
lclavicle 9.93923e-016 1.59028e-014
lhumerus -21.0222 2.48247 85.9577
lradius 24.7732
lwrist -21.6736
lhand -8.75521 8.24302
lfingers 7.12502
lthumb 17.1821 37.5034
rfemur -33.6689 -8.25945 26.7621
rtibia 38.8925
rfoot -23.3242 7.45019
rtoes 24.614
lfemur -35.8167 -4.96578 -17.3331
ltibia 56.4155
lfoot -14.0625 0.37091
ltoes -5.35529
223
root -1.50533 15.9338 30.1814 -167.273 -16.8223 -178.507
lowerback -5.97891 -1.40542 -0.967018
upperback 2.58564 -1.76893 -0.980177
thorax 6.0452 -0.900935 -0.675833
lowerneck -0.870986 -0.694766 -4.91165
upperneck -0.711655 -0.972812 8.51099
head -0.00158664 -0.522729 3.61765
rclavicle 1.03368e-014 1.11319e-014
rhumerus -35.1655 -19.518 -79.3727
rradius 30.9368
rwrist 29.3596
rhand 0.871706 -6.98316
rfingers 7.12502
rthumb 26.425 -35.1613
lclavicle 1.03368e-014 1.11319e-014
lhumerus -21.3164 2.4671 85.6749
lradius 24.4305
lwrist -22.1288
lhand -8.68383 8.06707
lfingers 7.12502
lthumb 17.2508 37.3214
rfemur -33.5802 -8.8687 26.531
rtibia 39.4345
rfoot -24.5405 7.14369
rtoes 24.8808
lfemur -36.6409 -4.93917 -18.1072
ltibia 53.8608
lfoot -15.2366 1.02214
ltoes -8.92261
224
root -1.50332 15.9062 30.0949 -167.022 -17.355 -178.715
lowerback -6.05902 -1.31347 -1.1126
upperback 2.56946 -1.62942 -1.05678
thorax 6.07642 -0.836706 -0.66043
lowerneck -1.05547 -0.724308 -4.71512
upperneck -0.477091 -1.01275 8.19604
head 0.10556 -0.532546 3.4679
rclavicle 3.97569e-015 -1.11319e-014
rhumerus -35.277 -18.9143 -79.7675
rradius 31.2657
rwrist 28.9077
rhand 0.790076 -7.07349
rfingers 7.12502
rthumb 26.3469 -35.2633
lclavicle 3.97569e-015 -1.11319e-014
lhumerus -21.5052 2.95549 85.3404
lradius 23.8166
lwrist -22.8861
lhand -8.54047 7.96225
lfingers 7.12502
lthumb 17.3887 37.2044
rfemur -33.6712 -8.84866 26.3858
rtibia 39.8721
rfoot -25.9168 6.57873
rtoes 25.9495
lfemur -37.5925 -4.56675 -18.7552
ltibia 51.3081
lfoot -16.4167 -0.0150686
ltoes -9.70515
225
root -1.50908 15.8843 30.0077 -166.755 -17.8759 -178.809
lowerback -6.11674 -1.18035 -1.06186
upperback 2.47639 -1.45059 -1.13723
thorax 6.0082 -0.744408 -0.752135
lowerneck -1.16833 -0.671915 -4.66376
upperneck -0.313416 -0.944551 8.08804
head 0.171682 -0.492746 3.42025
rclavicle -4.96962e-014 -7.95139e-016
rhumerus -35.3733 -18.4468 -80.0673
rradius 31.4511
rwrist 28.4656
rhand 0.859991 -6.97417
rfingers 7.12502
rthumb 26.4138 -35.154
lclavicle -4.96962e-014 -7.95139e-016
lhumerus -21.7728 3.57206 84.9438
lradius 23.1789
lwrist -23.7406
lhand -8.45314 8.00501
lfingers 7.12502
lthumb 17.4728 37.2398
rfemur -33.797 -9.06181 26.4025
rtibia 40.1759
rfoot -27.3075 6.3648
rtoes 27.7658
lfemur -38.5176 -4.16544 -19.2952
ltibia 48.7919
lfoot -16.6894 1.96736
ltoes -12.925
226
root -1.51908 15.8789 29.9187 -166.674 -18.4879 -178.633
lowerback -6.06999 -1.05165 -0.739759
upperback 2.40044 -1.30376 -1.1629
thorax 5.89384 -0.658232 -0.940405
lowerneck -1.18954 -0.620208 -4.56556
upperneck -0.240059 -0.87535 7.94361
head 0.192416 -0.455501 3.35158
rclavicle 9.93923e-016 -6.36111e-015
rhumerus -35.4492 -17.9823 -80.393
rradius 31.6146
rwrist 28.1869
rhand 1.07297 -6.97585
rfingers 7.12502
rthumb 26.6177 -35.1249
lclavicle 9.93923e-016 -6.36111e-015
lhumerus -22.1581 4.52794 84.3977
lradius 22.6426
lwrist -24.6276
lhand -8.55606 7.83116
lfingers 7.12502
lthumb 17.3737 37.0747
rfemur -33.6089 -9.43062 26.7033
rtibia 40.3245
rfoot -27.9575 5.95084
rtoes 27.5453
lfemur -39.2781 -3.79363 -19.5077
ltibia 46.4236
lfoot -17.1638 1.22366
ltoes -7.9546
227
root -1.53058 15.8834 29.8294 -166.616 -19.0933 -178.51
lowerback -6.04334 -0.973674 -0.559811
upperback 2.37094 -1.21359 -1.1722
thorax 5.84433 -0.606367 -1.03991
lowerneck -1.20664 -0.550162 -4.40502
upperneck -0.249482 -0.777251 7.72298
head 0.183573 -0.404827 3.24515
rclavicle 2.0276e-014 2.70347e-014
rhumerus -35.422 -17.3931 -80.7869
rradius 31.7692
rwrist 28.322
rhand 1.2481 -6.96767
rfingers 7.12502
rthumb 26.7853 -35.0911
lclavicle 2.0276e-014 2.70347e-014
lhumerus -22.5504 5.97644 83.7219
lradius 22.1739
lwrist -25.6603
lhand -8.62198 7.79675
lfingers 7.12502
lthumb 17.3103 37.0459
rfemur -33.2012 -9.78847 26.9286
rtibia 40.3097
rfoot -27.6419 5.10501
rtoes 23.6859
lfemur -39.8413 -3.27083 -19.851
ltibia 44.2152
lfoot -17.2802 2.40214
ltoes -8.15402
228
root -1.54539 15.8912 29.7396 -166.435 -19.6447 -178.544
lowerback -6.11941 -0.896996 -0.563412
upperback 2.31268 -1.10757 -1.21595
thorax 5.82712 -0.553156 -1.07239
lowerneck -1.29069 -0.521871 -4.4508
upperneck -0.0958932 -0.742097 7.71404
head 0.244912 -0.382951 3.25093
rclavicle -1.53064e-014 1.19271e-014
rhumerus -35.3284 -16.8234 -81.1486
rradius 31.772
rwrist 28.636
rhand 1.14333 -6.69618
rfingers 7.12502
rthumb 26.685 -34.835
lclavicle -1.53064e-014 1.19271e-014
lhumerus -22.9474 7.5243 83.0052
lradius 21.6476
lwrist -26.6079
lhand -8.76718 8.0022
lfingers 7.12502
lthumb 17.1705 37.2635
rfemur -32.8762 -10.277 27.0232
rtibia 40.1485
rfoot -28.1477 4.90953
rtoes 23.0066
lfemur -40.4014 -2.57893 -20.4439
ltibia 42.2319
lfoot -17.3381 3.16495
ltoes -10.2036
229
root -1.56198 15.9016 29.6466 -166.366 -20.2591 -178.477
lowerback -6.18832 -0.806992 -0.546292
upperback 2.27643 -0.98727 -1.20966
thorax 5.82978 -0.492719 -1.06288
lowerneck -1.22411 -0.475293 -4.34095
upperneck -0.085253 -0.675194 7.45177
head 0.230198 -0.348274 3.1403
rclavicle 3.598e-014 -9.54166e-015
rhumerus -35.2706 -16.2548 -81.4426
rradius 31.8246
rwrist 28.71
rhand 1.16366 -6.53081
rfingers 7.12502
rthumb 26.7045 -34.6666
lclavicle 3.598e-014 -9.54166e-015
lhumerus -23.3751 9.01885 82.3033
lradius 21.1686
lwrist -27.2029
lhand -8.84126 8.57056
lfingers 7.12502
lthumb 17.0992 37.8381
rfemur -32.4493 -10.9835 27.2487
rtibia 39.8699
rfoot -28.3588 4.96621
rtoes 22.5043
lfemur -40.8779 -1.81145 -20.9541
ltibia 40.5667
lfoot -17.4923 3.4742
ltoes -11.35
230
root -1.57586 15.9137 29.5545 -166.413 -20.9014 -178.306
lowerback -6.21167 -0.724913 -0.614905
upperback 2.3031 -0.87527 -1.09496
thorax 5.8754 -0.441292 -0.893163
lowerneck -1.0746 -0.411644 -4.3109
upperneck -0.37765 -0.572496 7.19881
head 0.103644 -0.30031 3.04891
rclavicle 2.32578e-014 -5.00937e-014
rhumerus -35.1567 -15.6751 -81.6417
rradius 31.956
rwrist 28.7999
rhand 1.2097 -6.56005
rfingers 7.12502
rthumb 26.7485 -34.6891
lclavicle 2.32578e-014 -5.00937e-014
lhumerus -23.7295 10.7909 81.5914
lradius 20.651
lwrist -28.0304
lhand -8.68822 8.89882
lfingers 7.12502
lthumb 17.2465 38.1535
rfemur -31.8561 -11.3884 27.5093
rtibia 39.5054
rfoot -28.5884 4.71674
rtoes 21.8384
lfemur -41.2386 -0.903137 -21.387
ltibia 39.2804
lfoot -17.5418 2.271
ltoes -6.59712
